<svg height="511pt" fill='#DE3AFC' viewBox="1 -10 511.99957 511" width="511pt" xmlns="http://www.w3.org/2000/svg"><path d="m510.789062 222.761719c.097657-.148438.1875-.304688.273438-.464844.09375-.167969.183594-.339844.265625-.515625.03125-.070312.074219-.132812.101563-.203125.039062-.089844.058593-.1875.09375-.277344.066406-.183593.128906-.363281.183593-.550781.046875-.171875.089844-.34375.128907-.515625.035156-.179687.070312-.359375.09375-.542969.027343-.179687.042968-.359375.054687-.539062.011719-.179688.015625-.363282.015625-.542969 0-.183594-.007812-.363281-.023438-.542969-.015624-.179687-.035156-.359375-.0625-.539062-.03125-.179688-.0625-.359375-.105468-.539063-.039063-.175781-.085938-.34375-.136719-.515625-.058594-.183594-.121094-.363281-.191406-.542968-.03125-.082032-.050781-.167969-.085938-.25-.035156-.082032-.082031-.152344-.121093-.230469-.082032-.171875-.171876-.339844-.265626-.507813-.089843-.160156-.1875-.3125-.289062-.464844-.097656-.148437-.203125-.292968-.316406-.433593-.117188-.152344-.246094-.300781-.375-.445313-.0625-.066406-.113282-.140625-.175782-.207031l-106.964843-108.601563c-.210938-.210937-.433594-.40625-.664063-.589843-.066406-.050781-.132812-.101563-.203125-.152344-.175781-.128906-.359375-.257813-.546875-.371094-.078125-.046875-.152344-.09375-.230468-.136719-.238282-.136718-.480469-.261718-.730469-.371093-.023438-.007813-.042969-.019531-.066407-.03125-.273437-.113281-.554687-.207031-.839843-.292969-.082031-.023438-.164063-.039062-.25-.0625-.214844-.054688-.433594-.097656-.65625-.132812-.089844-.015626-.175781-.03125-.265625-.039063-.300782-.039063-.601563-.0625-.90625-.0625h-141.460938c-.019531 0-.039062 0-.0625 0h-55.933594c-4.15625 0-7.523437 3.367187-7.523437 7.523437s3.367187 7.523438 7.523437 7.523438h41.691407l-59.523438 87.304688-54.230469-87.304688h37.953126c4.15625 0 7.523437-3.367188 7.523437-7.523438s-3.367187-7.523437-7.523437-7.523437h-51.484376c-.070312 0-.136718.007813-.207031.011719-.136719.003906-.269531.007812-.402343.019531-.109376.007813-.21875.019531-.328126.035156-.136718.015625-.273437.035157-.410156.0625-.105468.015625-.210937.039063-.316406.0625-.132812.03125-.269531.066407-.40625.105469-.105469.027344-.210938.0625-.3125.097656-.128906.042969-.253906.085938-.378906.136719-.113282.046875-.222656.09375-.332032.140625-.113281.054688-.226562.105469-.339843.164062-.117188.058594-.226563.121094-.339844.1875-.066406.039063-.132813.070313-.199219.109376-.039062.027343-.074218.054687-.117187.082031-.105469.066406-.207031.140625-.308594.214843-.109375.078126-.214844.152344-.316406.238282-.082031.066406-.164063.136718-.246094.207031-.113281.101563-.222656.199219-.328125.304687-.023438.023438-.050781.042969-.074219.066407l-106.964843 108.597656c-.0625.0625-.109376.136719-.171876.203125-.132812.144531-.261718.296875-.382812.453125-.109375.140625-.210938.28125-.308594.425781-.105468.152344-.203125.3125-.296875.476563-.09375.160156-.179687.324219-.257812.492187-.039063.082032-.089844.15625-.125.238282-.039063.085937-.054688.175781-.089844.261718-.070313.171875-.128906.347656-.183594.527344-.054687.175781-.101562.347656-.144531.527344-.039062.175781-.070312.347656-.0976562.527344-.0273438.183593-.0507813.367187-.0664063.550781-.015625.175781-.01953125.351562-.0234375.53125 0 .183593.00390625.371093.015625.554687.0117188.175782.0273438.347656.0546875.523438.0234375.1875.0546875.371094.0937495.558594.039063.167968.078126.335937.128907.503906.050781.191406.117187.375.183593.558594.035157.09375.054688.183593.09375.273437.027344.070313.070313.132813.101563.203125.082031.175781.171875.351562.265625.523438.085938.15625.175781.308593.269531.457031.101563.152343.207031.300781.320313.445312.113281.152344.230468.300781.355468.441407.050782.058593.089844.117187.136719.171874l139.535157 148.792969c2.839843 3.03125 7.601562 3.183594 10.632812.339844s3.1875-7.605469.34375-10.636719l-127.648438-136.121094h151.351563l64.257813 229.917969-64.167969-68.425781c-2.84375-3.035156-7.605469-3.1875-10.636719-.34375s-3.183594 7.605469-.339844 10.636719l85.164063 90.816406c.011719.007813.019531.019531.03125.027344.023437.023437.046875.042969.066406.066406.234375.242187.484375.460937.746094.667969.058593.042968.113281.089844.171875.132812.285156.210938.582031.402344.886718.570313.054688.027343.109376.050781.164063.078125.28125.144531.574219.269531.871094.378906.0625.023438.121093.046875.183593.066406.335938.113282.675782.199219 1.023438.261719.078125.011719.15625.023437.238281.035156.363281.054688.734375.09375 1.105469.09375.375 0 .742188-.039062 1.109375-.09375.078125-.011719.15625-.023437.238281-.039062.347656-.0625.6875-.144531 1.019532-.257813.0625-.019531.125-.046875.183593-.066406.300781-.109375.589844-.234375.871094-.378906.054687-.027344.109375-.050782.164063-.078125.308593-.167969.601562-.359375.886718-.570313.058594-.042968.113282-.089844.171875-.132812.261719-.207032.511719-.425782.746094-.664063.019531-.023437.046875-.046875.070313-.066406.007812-.011719.019531-.019531.027343-.03125l248.492188-264.976563c.046875-.054687.085937-.113281.136719-.167968.125-.144532.242187-.296875.359374-.449219.109376-.144531.214844-.289063.3125-.441406zm-314.597656-11.613281 59.808594-87.722657 59.808594 87.722657zm290.328125 0h-142.925781l55.277344-88.988282zm-102.527343-93.554688-54.230469 87.304688-59.523438-87.304688zm-270.863282 4.566406 55.277344 88.988282h-142.925781zm207.007813 104.046875-64.136719 229.488281-64.136719-229.488281zm-48.628907 229.902344 64.257813-229.914063h151.355469zm0 0"/><path d="m256 44.308594c4.15625 0 7.523438-3.367188 7.523438-7.523438v-28.761718c0-4.15625-3.367188-7.523438-7.523438-7.523438s-7.523438 3.367188-7.523438 7.523438v28.761718c0 4.152344 3.367188 7.523438 7.523438 7.523438zm0 0"/><path d="m173.949219 52.273438c1.46875 1.46875 3.394531 2.203124 5.320312 2.203124s3.851563-.734374 5.320313-2.203124c2.9375-2.941407 2.9375-7.703126 0-10.644532l-20.335938-20.335937c-2.9375-2.9375-7.703125-2.9375-10.640625 0-2.9375 2.941406-2.9375 7.703125 0 10.640625zm0 0"/><path d="m332.730469 54.476562c1.925781 0 3.851562-.734374 5.320312-2.203124l20.335938-20.335938c2.941406-2.941406 2.941406-7.703125 0-10.644531-2.9375-2.9375-7.699219-2.9375-10.640625 0l-20.335938 20.339843c-2.9375 2.9375-2.9375 7.703126 0 10.640626 1.46875 1.46875 3.394532 2.203124 5.320313 2.203124zm0 0"/></svg>